####
#
# OBJ File Generated by Meshlab
#
####
# Object t0.obj
#
# Vertices: 144
# Faces: 288
#
####
vn -2.4279423 -1.7401831 -3.0000000
v -0.9574201 -0.6397276 -0.1405036
vn -2.7207828 -1.2330784 -3.0000000
v -1.0638281 -0.4406520 -0.1405036
vn 0.0000000 0.0000000 -6.0000000
v -0.6208965 -0.4139310 -0.1405036
vn 0.0000000 0.0000000 -6.0000000
v -0.6208965 -0.6208965 -0.1405036
vn -2.5368533 -1.5771865 3.0000000
v -0.9574201 -0.6397276 0.1405036
vn 0.0000000 0.0000000 6.0000000
v -0.6208965 -0.6208965 0.1405036
vn 0.0000000 0.0000000 6.0000000
v -0.6208965 -0.4139310 0.1405036
vn -2.7958016 -1.0519668 3.0000000
v -1.0638281 -0.4406520 0.1405036
vn -2.0417969 -2.1804142 -2.0000000
v -0.8142188 -0.8142188 -0.1405036
vn -1.5771866 -2.5368531 -3.0000000
v -0.6397276 -0.9574201 -0.1405036
vn -2.1804142 -2.0417969 2.0000000
v -0.8142188 -0.8142188 0.1405036
vn -1.7401831 -2.4279423 3.0000000
v -0.6397276 -0.9574201 0.1405036
vn 2.2185094 1.9426101 -4.0000000
v -0.3402767 -0.3402767 -0.1405036
vn 0.0000000 0.0000000 -6.0000000
v -0.4139310 -0.6208965 -0.1405036
vn 0.0000000 0.0000000 6.0000000
v -0.4139310 -0.6208965 0.1405036
vn 1.9426100 2.2185094 4.0000000
v -0.3402767 -0.3402767 0.1405036
vn -1.0519668 -2.7958016 -3.0000000
v -0.4406520 -1.0638281 -0.1405036
vn -1.2330784 -2.7207828 3.0000000
v -0.4406520 -1.0638281 0.1405036
vn 1.3062308 2.6437244 -3.0000000
v -0.1841564 -0.4445929 -0.1405036
vn 0.0000000 0.0000000 -6.0000000
v -0.2069655 -0.6208965 -0.1405036
vn 0.0000000 0.0000000 6.0000000
v -0.2069655 -0.6208965 0.1405036
vn 0.9457508 2.7930403 3.0000000
v -0.1841564 -0.4445929 0.1405036
vn -0.4863184 -2.9473095 -3.0000000
v -0.2246425 -1.1293540 -0.1405036
vn -0.6785868 -2.9090650 3.0000000
v -0.2246425 -1.1293540 0.1405036
vn 0.1950903 2.9423556 -3.0000000
v 0.0000000 -0.4812239 -0.1405036
vn 0.0000000 0.0000000 -6.0000000
v 0.0000000 -0.6208965 -0.1405036
vn 0.0000000 0.0000000 6.0000000
v 0.0000000 -0.6208965 0.1405036
vn -0.1950903 2.9423556 3.0000000
v 0.0000000 -0.4812239 0.1405036
vn 0.0980167 -2.9855542 -3.0000000
v 0.0000000 -1.1514792 -0.1405036
vn -0.0980167 -2.9855542 3.0000000
v 0.0000000 -1.1514792 0.1405036
vn -0.9457508 2.7930400 -3.0000000
v 0.1841564 -0.4445929 -0.1405036
vn 0.0000000 0.0000000 -6.0000000
v 0.2069655 -0.6208965 -0.1405036
vn 0.0000000 0.0000000 6.0000000
v 0.2069655 -0.6208965 0.1405036
vn -1.3062308 2.6437244 3.0000000
v 0.1841564 -0.4445929 0.1405036
vn 0.6785868 -2.9090650 -3.0000000
v 0.2246425 -1.1293540 -0.1405036
vn 0.4863184 -2.9473097 3.0000000
v 0.2246425 -1.1293540 0.1405036
vn -1.9426100 2.2185094 -5.0000000
v 0.3402767 -0.3402767 -0.1405036
vn 0.0000000 0.0000000 -6.0000000
v 0.4139310 -0.6208965 -0.1405036
vn 0.0000000 0.0000000 6.0000000
v 0.4139310 -0.6208965 0.1405036
vn -2.2185094 1.9426101 5.0000000
v 0.3402767 -0.3402767 0.1405036
vn 1.2330782 -2.7207828 -3.0000000
v 0.4406520 -1.0638281 -0.1405036
vn 1.0519668 -2.7958016 3.0000000
v 0.4406520 -1.0638281 0.1405036
vn 0.0000000 0.0000000 -6.0000000
v 0.6208965 -0.4139310 -0.1405036
vn 0.0000000 0.0000000 -6.0000000
v 0.6208965 -0.6208965 -0.1405036
vn 0.0000000 0.0000000 6.0000000
v 0.6208965 -0.6208965 0.1405036
vn 0.0000000 0.0000000 6.0000000
v 0.6208965 -0.4139310 0.1405036
vn 1.7401831 -2.4279423 -3.0000000
v 0.6397276 -0.9574201 -0.1405036
vn 1.5771865 -2.5368533 3.0000000
v 0.6397276 -0.9574201 0.1405036
vn 2.7958016 -1.0519668 -3.0000000
v 1.0638281 -0.4406520 -0.1405036
vn 2.5368533 -1.5771865 -3.0000000
v 0.9574201 -0.6397276 -0.1405036
vn 2.7207828 -1.2330784 3.0000000
v 1.0638281 -0.4406520 0.1405036
vn 2.4279423 -1.7401831 3.0000000
v 0.9574201 -0.6397276 0.1405036
vn 2.1804142 -2.0417969 -1.0000000
v 0.8142188 -0.8142188 -0.1405036
vn 2.0417969 -2.1804142 1.0000000
v 0.8142188 -0.8142188 0.1405036
vn -2.9090650 -0.6785868 -3.0000000
v -1.1293540 -0.2246425 -0.1405036
vn -2.9855542 -0.0980167 -3.0000000
v -1.1514792 0.0000000 -0.1405036
vn 0.0000000 0.0000000 -6.0000000
v -0.6208965 0.0000000 -0.1405036
vn 0.0000000 0.0000000 -6.0000000
v -0.6208965 -0.2069655 -0.1405036
vn -2.9473097 -0.4863184 3.0000000
v -1.1293540 -0.2246425 0.1405036
vn 0.0000000 0.0000000 6.0000000
v -0.6208965 -0.2069655 0.1405036
vn 0.0000000 0.0000000 6.0000000
v -0.6208965 0.0000000 0.1405036
vn -2.9855542 0.0980167 3.0000000
v -1.1514792 -0.0000000 0.1405036
vn 2.9423556 -0.1950903 -3.0000000
v -0.4812239 -0.0000000 -0.1405036
vn 2.7930400 0.9457508 -3.0000000
v -0.4445929 -0.1841564 -0.1405036
vn 2.9423556 0.1950903 3.0000000
v -0.4812239 -0.0000000 0.1405036
vn 2.6437244 1.3062308 3.0000000
v -0.4445929 -0.1841564 0.1405036
vn -2.6437244 1.3062308 -3.0000000
v 0.4445929 -0.1841564 -0.1405036
vn -2.9423556 0.1950903 -3.0000000
v 0.4812239 0.0000000 -0.1405036
vn 0.0000000 0.0000000 -6.0000000
v 0.6208965 0.0000000 -0.1405036
vn 0.0000000 0.0000000 -6.0000000
v 0.6208965 -0.2069655 -0.1405036
vn -2.7930400 0.9457508 3.0000000
v 0.4445929 -0.1841564 0.1405036
vn 0.0000000 0.0000000 6.0000000
v 0.6208965 -0.2069655 0.1405036
vn 0.0000000 0.0000000 6.0000000
v 0.6208965 0.0000000 0.1405036
vn -2.9423556 -0.1950903 3.0000000
v 0.4812239 -0.0000000 0.1405036
vn 2.9855542 0.0980167 -3.0000000
v 1.1514792 0.0000000 -0.1405036
vn 2.9473097 -0.4863184 -3.0000000
v 1.1293540 -0.2246425 -0.1405036
vn 2.9855542 -0.0980167 3.0000000
v 1.1514792 0.0000000 0.1405036
vn 2.9090650 -0.6785868 3.0000000
v 1.1293540 -0.2246425 0.1405036
vn -2.5368531 1.5771866 -3.0000000
v -0.9574201 0.6397276 -0.1405036
vn -2.1804142 2.0417969 -1.0000000
v -0.8142188 0.8142188 -0.1405036
vn -1.7401831 2.4279423 -3.0000000
v -0.6397276 0.9574201 -0.1405036
vn 0.0000000 0.0000000 -6.0000000
v -0.6208965 0.6208965 -0.1405036
vn -2.4279423 1.7401831 3.0000000
v -0.9574201 0.6397276 0.1405036
vn 0.0000000 0.0000000 6.0000000
v -0.6208965 0.6208965 0.1405036
vn -1.5771866 2.5368531 3.0000000
v -0.6397276 0.9574201 0.1405036
vn -2.0417969 2.1804142 1.0000000
v -0.8142188 0.8142188 0.1405036
vn -2.7958016 1.0519668 -3.0000000
v -1.0638281 0.4406520 -0.1405036
vn 0.0000000 0.0000000 -6.0000000
v -0.6208965 0.4139310 -0.1405036
vn -2.7207828 1.2330784 3.0000000
v -1.0638281 0.4406520 0.1405036
vn 0.0000000 0.0000000 6.0000000
v -0.6208965 0.4139310 0.1405036
vn -1.2330784 2.7207828 -3.0000000
v -0.4406520 1.0638281 -0.1405036
vn 0.0000000 0.0000000 -6.0000000
v -0.4139310 0.6208965 -0.1405036
vn 0.0000000 0.0000000 6.0000000
v -0.4139310 0.6208965 0.1405036
vn -1.0519668 2.7958016 3.0000000
v -0.4406520 1.0638281 0.1405036
vn 1.9426100 -2.2185094 -5.0000000
v -0.3402767 0.3402767 -0.1405036
vn 2.2185094 -1.9426101 5.0000000
v -0.3402767 0.3402767 0.1405036
vn -0.6785868 2.9090650 -3.0000000
v -0.2246425 1.1293540 -0.1405036
vn 0.0000000 0.0000000 -6.0000000
v -0.2069655 0.6208965 -0.1405036
vn 0.0000000 0.0000000 6.0000000
v -0.2069655 0.6208965 0.1405036
vn -0.4863184 2.9473095 3.0000000
v -0.2246425 1.1293540 0.1405036
vn 0.9457508 -2.7930403 -3.0000000
v -0.1841564 0.4445929 -0.1405036
vn 1.3062308 -2.6437244 3.0000000
v -0.1841564 0.4445929 0.1405036
vn -0.0980167 2.9855542 -3.0000000
v -0.0000000 1.1514792 -0.1405036
vn 0.0000000 0.0000000 -6.0000000
v 0.0000000 0.6208965 -0.1405036
vn 0.0000000 0.0000000 6.0000000
v 0.0000000 0.6208965 0.1405036
vn 0.0980167 2.9855542 3.0000000
v -0.0000000 1.1514792 0.1405036
vn -0.1950903 -2.9423556 -3.0000000
v -0.0000000 0.4812239 -0.1405036
vn 0.1950903 -2.9423556 3.0000000
v -0.0000000 0.4812239 0.1405036
vn 0.4863184 2.9473097 -3.0000000
v 0.2246425 1.1293540 -0.1405036
vn 0.0000000 0.0000000 -6.0000000
v 0.2069655 0.6208965 -0.1405036
vn 0.0000000 0.0000000 6.0000000
v 0.2069655 0.6208965 0.1405036
vn 0.6785868 2.9090650 3.0000000
v 0.2246425 1.1293540 0.1405036
vn -1.3062308 -2.6437244 -3.0000000
v 0.1841564 0.4445929 -0.1405036
vn -0.9457508 -2.7930400 3.0000000
v 0.1841564 0.4445929 0.1405036
vn 1.0519668 2.7958016 -3.0000000
v 0.4406520 1.0638281 -0.1405036
vn 0.0000000 0.0000000 -6.0000000
v 0.4139310 0.6208965 -0.1405036
vn 0.0000000 0.0000000 6.0000000
v 0.4139310 0.6208965 0.1405036
vn 1.2330782 2.7207828 3.0000000
v 0.4406520 1.0638281 0.1405036
vn -2.2185094 -1.9426101 -4.0000000
v 0.3402767 0.3402767 -0.1405036
vn -1.9426100 -2.2185094 4.0000000
v 0.3402767 0.3402767 0.1405036
vn 1.5771865 2.5368533 -3.0000000
v 0.6397276 0.9574201 -0.1405036
vn 0.0000000 0.0000000 -6.0000000
v 0.6208965 0.6208965 -0.1405036
vn 0.0000000 0.0000000 6.0000000
v 0.6208965 0.6208965 0.1405036
vn 1.7401831 2.4279423 3.0000000
v 0.6397276 0.9574201 0.1405036
vn 0.0000000 0.0000000 -6.0000000
v 0.6208965 0.4139310 -0.1405036
vn 0.0000000 0.0000000 6.0000000
v 0.6208965 0.4139310 0.1405036
vn 2.0417969 2.1804142 -2.0000000
v 0.8142188 0.8142188 -0.1405036
vn 2.4279423 1.7401831 -3.0000000
v 0.9574201 0.6397276 -0.1405036
vn 2.1804142 2.0417969 2.0000000
v 0.8142188 0.8142188 0.1405036
vn 2.5368531 1.5771866 3.0000000
v 0.9574201 0.6397276 0.1405036
vn 2.7207828 1.2330784 -3.0000000
v 1.0638281 0.4406520 -0.1405036
vn 2.7958016 1.0519668 3.0000000
v 1.0638281 0.4406520 0.1405036
vn -2.9473095 0.4863184 -3.0000000
v -1.1293540 0.2246425 -0.1405036
vn 0.0000000 0.0000000 -6.0000000
v -0.6208965 0.2069655 -0.1405036
vn -2.9090650 0.6785868 3.0000000
v -1.1293540 0.2246425 0.1405036
vn 0.0000000 0.0000000 6.0000000
v -0.6208965 0.2069655 0.1405036
vn 2.6437244 -1.3062308 -3.0000000
v -0.4445929 0.1841564 -0.1405036
vn 2.7930403 -0.9457508 3.0000000
v -0.4445929 0.1841564 0.1405036
vn -2.7930403 -0.9457508 -3.0000000
v 0.4445929 0.1841564 -0.1405036
vn 0.0000000 0.0000000 -6.0000000
v 0.6208965 0.2069655 -0.1405036
vn -2.6437244 -1.3062308 3.0000000
v 0.4445929 0.1841564 0.1405036
vn 0.0000000 0.0000000 6.0000000
v 0.6208965 0.2069655 0.1405036
vn 2.9090650 0.6785868 -3.0000000
v 1.1293540 0.2246425 -0.1405036
vn 2.9473095 0.4863184 3.0000000
v 1.1293540 0.2246425 0.1405036
# 144 vertices, 0 vertices normals

f 1//1 2//2 3//3
f 1//1 3//3 4//4
f 5//5 6//6 7//7
f 5//5 7//7 8//8
f 2//2 1//1 5//5
f 2//2 5//5 8//8
f 9//9 1//1 4//4
f 9//9 4//4 10//10
f 11//11 12//12 6//6
f 11//11 6//6 5//5
f 1//1 9//9 11//11
f 1//1 11//11 5//5
f 9//9 10//10 12//12
f 9//9 12//12 11//11
f 4//4 3//3 13//13
f 4//4 13//13 14//14
f 6//6 15//15 16//16
f 6//6 16//16 7//7
f 10//10 4//4 14//14
f 10//10 14//14 17//17
f 12//12 18//18 15//15
f 12//12 15//15 6//6
f 10//10 17//17 18//18
f 10//10 18//18 12//12
f 14//14 13//13 19//19
f 14//14 19//19 20//20
f 15//15 21//21 22//22
f 15//15 22//22 16//16
f 19//19 13//13 16//16
f 19//19 16//16 22//22
f 17//17 14//14 20//20
f 17//17 20//20 23//23
f 18//18 24//24 21//21
f 18//18 21//21 15//15
f 17//17 23//23 24//24
f 17//17 24//24 18//18
f 20//20 19//19 25//25
f 20//20 25//25 26//26
f 21//21 27//27 28//28
f 21//21 28//28 22//22
f 25//25 19//19 22//22
f 25//25 22//22 28//28
f 23//23 20//20 26//26
f 23//23 26//26 29//29
f 24//24 30//30 27//27
f 24//24 27//27 21//21
f 23//23 29//29 30//30
f 23//23 30//30 24//24
f 26//26 25//25 31//31
f 26//26 31//31 32//32
f 27//27 33//33 34//34
f 27//27 34//34 28//28
f 31//31 25//25 28//28
f 31//31 28//28 34//34
f 29//29 26//26 32//32
f 29//29 32//32 35//35
f 30//30 36//36 33//33
f 30//30 33//33 27//27
f 29//29 35//35 36//36
f 29//29 36//36 30//30
f 32//32 31//31 37//37
f 32//32 37//37 38//38
f 33//33 39//39 40//40
f 33//33 40//40 34//34
f 37//37 31//31 34//34
f 37//37 34//34 40//40
f 35//35 32//32 38//38
f 35//35 38//38 41//41
f 36//36 42//42 39//39
f 36//36 39//39 33//33
f 35//35 41//41 42//42
f 35//35 42//42 36//36
f 38//38 37//37 43//43
f 38//38 43//43 44//44
f 39//39 45//45 46//46
f 39//39 46//46 40//40
f 41//41 38//38 44//44
f 41//41 44//44 47//47
f 42//42 48//48 45//45
f 42//42 45//45 39//39
f 41//41 47//47 48//48
f 41//41 48//48 42//42
f 44//44 43//43 49//49
f 44//44 49//49 50//50
f 50//50 49//49 51//51
f 50//50 51//51 52//52
f 45//45 52//52 51//51
f 45//45 51//51 46//46
f 47//47 44//44 50//50
f 47//47 50//50 53//53
f 53//53 50//50 52//52
f 53//53 52//52 54//54
f 48//48 54//54 52//52
f 48//48 52//52 45//45
f 47//47 53//53 54//54
f 47//47 54//54 48//48
f 55//55 56//56 57//57
f 55//55 57//57 58//58
f 59//59 60//60 61//61
f 59//59 61//61 62//62
f 56//56 55//55 59//59
f 56//56 59//59 62//62
f 2//2 55//55 58//58
f 2//2 58//58 3//3
f 8//8 7//7 60//60
f 8//8 60//60 59//59
f 55//55 2//2 8//8
f 55//55 8//8 59//59
f 58//58 57//57 63//63
f 58//58 63//63 64//64
f 64//64 63//63 65//65
f 64//64 65//65 66//66
f 60//60 66//66 65//65
f 60//60 65//65 61//61
f 3//3 58//58 64//64
f 3//3 64//64 13//13
f 13//13 64//64 66//66
f 13//13 66//66 16//16
f 7//7 16//16 66//66
f 7//7 66//66 60//60
f 67//67 68//68 69//69
f 67//67 69//69 70//70
f 71//71 72//72 73//73
f 71//71 73//73 74//74
f 68//68 67//67 71//71
f 68//68 71//71 74//74
f 37//37 67//67 70//70
f 37//37 70//70 43//43
f 40//40 46//46 72//72
f 40//40 72//72 71//71
f 67//67 37//37 40//40
f 67//67 40//40 71//71
f 70//70 69//69 75//75
f 70//70 75//75 76//76
f 76//76 75//75 77//77
f 76//76 77//77 78//78
f 72//72 78//78 77//77
f 72//72 77//77 73//73
f 43//43 70//70 76//76
f 43//43 76//76 49//49
f 49//49 76//76 78//78
f 49//49 78//78 51//51
f 46//46 51//51 78//78
f 46//46 78//78 72//72
f 79//79 80//80 81//81
f 79//79 81//81 82//82
f 83//83 84//84 85//85
f 83//83 85//85 86//86
f 80//80 79//79 83//83
f 80//80 83//83 86//86
f 81//81 80//80 86//86
f 81//81 86//86 85//85
f 87//87 79//79 82//82
f 87//87 82//82 88//88
f 89//89 90//90 84//84
f 89//89 84//84 83//83
f 79//79 87//87 89//89
f 79//79 89//89 83//83
f 82//82 81//81 91//91
f 82//82 91//91 92//92
f 84//84 93//93 94//94
f 84//84 94//94 85//85
f 91//91 81//81 85//85
f 91//91 85//85 94//94
f 88//88 82//82 92//92
f 88//88 92//92 95//95
f 90//90 96//96 93//93
f 90//90 93//93 84//84
f 92//92 91//91 97//97
f 92//92 97//97 98//98
f 93//93 99//99 100//100
f 93//93 100//100 94//94
f 97//97 91//91 94//94
f 97//97 94//94 100//100
f 95//95 92//92 98//98
f 95//95 98//98 101//101
f 96//96 102//102 99//99
f 96//96 99//99 93//93
f 95//95 101//101 102//102
f 95//95 102//102 96//96
f 98//98 97//97 103//103
f 98//98 103//103 104//104
f 99//99 105//105 106//106
f 99//99 106//106 100//100
f 103//103 97//97 100//100
f 103//103 100//100 106//106
f 101//101 98//98 104//104
f 101//101 104//104 107//107
f 102//102 108//108 105//105
f 102//102 105//105 99//99
f 101//101 107//107 108//108
f 101//101 108//108 102//102
f 104//104 103//103 109//109
f 104//104 109//109 110//110
f 105//105 111//111 112//112
f 105//105 112//112 106//106
f 109//109 103//103 106//106
f 109//109 106//106 112//112
f 107//107 104//104 110//110
f 107//107 110//110 113//113
f 108//108 114//114 111//111
f 108//108 111//111 105//105
f 107//107 113//113 114//114
f 107//107 114//114 108//108
f 110//110 109//109 115//115
f 110//110 115//115 116//116
f 111//111 117//117 118//118
f 111//111 118//118 112//112
f 115//115 109//109 112//112
f 115//115 112//112 118//118
f 113//113 110//110 116//116
f 113//113 116//116 119//119
f 114//114 120//120 117//117
f 114//114 117//117 111//111
f 113//113 119//119 120//120
f 113//113 120//120 114//114
f 116//116 115//115 121//121
f 116//116 121//121 122//122
f 117//117 123//123 124//124
f 117//117 124//124 118//118
f 121//121 115//115 118//118
f 121//121 118//118 124//124
f 119//119 116//116 122//122
f 119//119 122//122 125//125
f 120//120 126//126 123//123
f 120//120 123//123 117//117
f 122//122 121//121 127//127
f 122//122 127//127 128//128
f 128//128 127//127 129//129
f 128//128 129//129 130//130
f 123//123 130//130 129//129
f 123//123 129//129 124//124
f 127//127 121//121 124//124
f 127//127 124//124 129//129
f 125//125 122//122 128//128
f 125//125 128//128 131//131
f 131//131 128//128 130//130
f 131//131 130//130 132//132
f 126//126 132//132 130//130
f 126//126 130//130 123//123
f 133//133 87//87 88//88
f 133//133 88//88 134//134
f 135//135 136//136 90//90
f 135//135 90//90 89//89
f 87//87 133//133 135//135
f 87//87 135//135 89//89
f 56//56 133//133 134//134
f 56//56 134//134 57//57
f 62//62 61//61 136//136
f 62//62 136//136 135//135
f 133//133 56//56 62//62
f 133//133 62//62 135//135
f 134//134 88//88 95//95
f 134//134 95//95 137//137
f 137//137 95//95 96//96
f 137//137 96//96 138//138
f 136//136 138//138 96//96
f 136//136 96//96 90//90
f 57//57 134//134 137//137
f 57//57 137//137 63//63
f 63//63 137//137 138//138
f 63//63 138//138 65//65
f 61//61 65//65 138//138
f 61//61 138//138 136//136
f 139//139 119//119 125//125
f 139//139 125//125 140//140
f 141//141 142//142 126//126
f 141//141 126//126 120//120
f 119//119 139//139 141//141
f 119//119 141//141 120//120
f 68//68 139//139 140//140
f 68//68 140//140 69//69
f 74//74 73//73 142//142
f 74//74 142//142 141//141
f 139//139 68//68 74//74
f 139//139 74//74 141//141
f 140//140 125//125 131//131
f 140//140 131//131 143//143
f 143//143 131//131 132//132
f 143//143 132//132 144//144
f 142//142 144//144 132//132
f 142//142 132//132 126//126
f 69//69 140//140 143//143
f 69//69 143//143 75//75
f 75//75 143//143 144//144
f 75//75 144//144 77//77
f 73//73 77//77 144//144
f 73//73 144//144 142//142
# 288 faces, 0 coords texture

# End of File
